<?xml version="1.0" encoding="UTF-8"?>
<!DOCTYPE xmeml>
<xmeml version="4">
  <project>
    <name>20260103_171339_v1</name>
    <children>
      <sequence id="sequence-1">
        <name>20260103_171339_v1</name>
        <duration>722</duration>
        <rate>
          <timebase>24</timebase>
          <ntsc>FALSE</ntsc>
        </rate>
        <media>
          <video>
            <format>
              <samplecharacteristics>
                <rate>
                  <timebase>24</timebase>
                </rate>
                <width>3840</width>
                <height>2160</height>
                <pixelaspectratio>square</pixelaspectratio>
              </samplecharacteristics>
            </format>
            <track>
              <clipitem id="clipitem-1">
                <name>TearsOfSteel.mp4</name>
                <duration>82</duration>
                <rate>
                  <timebase>24</timebase>
                  <ntsc>FALSE</ntsc>
                </rate>
                <start>0</start>
                <end>82</end>
                <in>8317</in>
                <out>8399</out>
                <file id="file-1">
                  <name>TearsOfSteel.mp4</name>
                  <pathurl>file:///data/input/TearsOfSteel.mp4</pathurl>
                  <rate>
                    <timebase>24</timebase>
                    <ntsc>FALSE</ntsc>
                  </rate>
                  <duration>8639</duration>
                  <media>
                    <video>
                      <samplecharacteristics>
                        <rate>
                          <timebase>24</timebase>
                        </rate>
                        <width>3840</width>
                        <height>2160</height>
                      </samplecharacteristics>
                    </video>
                  </media>
                </file>
                <labels>
                  <label2>medium</label2>
                </labels>
                <comments>
                  <mastercomment1>0.0</mastercomment1>
                  <mastercomment2>medium</mastercomment2>
                </comments>
              </clipitem>
              <clipitem id="clipitem-2">
                <name>Sintel.mp4</name>
                <duration>84</duration>
                <rate>
                  <timebase>24</timebase>
                  <ntsc>FALSE</ntsc>
                </rate>
                <start>82</start>
                <end>166</end>
                <in>1813</in>
                <out>1897</out>
                <file id="file-2">
                  <name>Sintel.mp4</name>
                  <pathurl>file:///data/input/Sintel.mp4</pathurl>
                  <rate>
                    <timebase>24</timebase>
                    <ntsc>FALSE</ntsc>
                  </rate>
                  <duration>2137</duration>
                  <media>
                    <video>
                      <samplecharacteristics>
                        <rate>
                          <timebase>24</timebase>
                        </rate>
                        <width>3840</width>
                        <height>2160</height>
                      </samplecharacteristics>
                    </video>
                  </media>
                </file>
                <labels>
                  <label2>medium</label2>
                </labels>
                <comments>
                  <mastercomment1>0.15552250477349466</mastercomment1>
                  <mastercomment2>medium</mastercomment2>
                </comments>
              </clipitem>
              <clipitem id="clipitem-3">
                <name>TearsOfSteel.mp4</name>
                <duration>85</duration>
                <rate>
                  <timebase>24</timebase>
                  <ntsc>FALSE</ntsc>
                </rate>
                <start>166</start>
                <end>251</end>
                <in>6794</in>
                <out>6879</out>
                <file id="file-3">
                  <name>TearsOfSteel.mp4</name>
                  <pathurl>file:///data/input/TearsOfSteel.mp4</pathurl>
                  <rate>
                    <timebase>24</timebase>
                    <ntsc>FALSE</ntsc>
                  </rate>
                  <duration>7119</duration>
                  <media>
                    <video>
                      <samplecharacteristics>
                        <rate>
                          <timebase>24</timebase>
                        </rate>
                        <width>3840</width>
                        <height>2160</height>
                      </samplecharacteristics>
                    </video>
                  </media>
                </file>
                <labels>
                  <label2>medium</label2>
                </labels>
                <comments>
                  <mastercomment1>0.1609936079091174</mastercomment1>
                  <mastercomment2>medium</mastercomment2>
                </comments>
              </clipitem>
              <clipitem id="clipitem-4">
                <name>Sintel.mp4</name>
                <duration>85</duration>
                <rate>
                  <timebase>24</timebase>
                  <ntsc>FALSE</ntsc>
                </rate>
                <start>251</start>
                <end>336</end>
                <in>6956</in>
                <out>7041</out>
                <file id="file-4">
                  <name>Sintel.mp4</name>
                  <pathurl>file:///data/input/Sintel.mp4</pathurl>
                  <rate>
                    <timebase>24</timebase>
                    <ntsc>FALSE</ntsc>
                  </rate>
                  <duration>7281</duration>
                  <media>
                    <video>
                      <samplecharacteristics>
                        <rate>
                          <timebase>24</timebase>
                        </rate>
                        <width>3840</width>
                        <height>2160</height>
                      </samplecharacteristics>
                    </video>
                  </media>
                </file>
                <labels>
                  <label2>medium</label2>
                </labels>
                <comments>
                  <mastercomment1>0.10055115504899681</mastercomment1>
                  <mastercomment2>medium</mastercomment2>
                </comments>
              </clipitem>
              <clipitem id="clipitem-5">
                <name>TearsOfSteel.mp4</name>
                <duration>85</duration>
                <rate>
                  <timebase>24</timebase>
                  <ntsc>FALSE</ntsc>
                </rate>
                <start>336</start>
                <end>421</end>
                <in>9887</in>
                <out>9972</out>
                <file id="file-5">
                  <name>TearsOfSteel.mp4</name>
                  <pathurl>file:///data/input/TearsOfSteel.mp4</pathurl>
                  <rate>
                    <timebase>24</timebase>
                    <ntsc>FALSE</ntsc>
                  </rate>
                  <duration>10212</duration>
                  <media>
                    <video>
                      <samplecharacteristics>
                        <rate>
                          <timebase>24</timebase>
                        </rate>
                        <width>3840</width>
                        <height>2160</height>
                      </samplecharacteristics>
                    </video>
                  </media>
                </file>
                <labels>
                  <label2>medium</label2>
                </labels>
                <comments>
                  <mastercomment1>0.10165397720902118</mastercomment1>
                  <mastercomment2>medium</mastercomment2>
                </comments>
              </clipitem>
              <clipitem id="clipitem-6">
                <name>ElephantsDream.mp4</name>
                <duration>85</duration>
                <rate>
                  <timebase>24</timebase>
                  <ntsc>FALSE</ntsc>
                </rate>
                <start>421</start>
                <end>506</end>
                <in>6031</in>
                <out>6116</out>
                <file id="file-6">
                  <name>ElephantsDream.mp4</name>
                  <pathurl>file:///data/input/ElephantsDream.mp4</pathurl>
                  <rate>
                    <timebase>24</timebase>
                    <ntsc>FALSE</ntsc>
                  </rate>
                  <duration>6356</duration>
                  <media>
                    <video>
                      <samplecharacteristics>
                        <rate>
                          <timebase>24</timebase>
                        </rate>
                        <width>3840</width>
                        <height>2160</height>
                      </samplecharacteristics>
                    </video>
                  </media>
                </file>
                <labels>
                  <label2>medium</label2>
                </labels>
                <comments>
                  <mastercomment1>0.09082554417492383</mastercomment1>
                  <mastercomment2>medium</mastercomment2>
                </comments>
              </clipitem>
              <clipitem id="clipitem-7">
                <name>TearsOfSteel.mp4</name>
                <duration>86</duration>
                <rate>
                  <timebase>24</timebase>
                  <ntsc>FALSE</ntsc>
                </rate>
                <start>506</start>
                <end>592</end>
                <in>2939</in>
                <out>3025</out>
                <file id="file-7">
                  <name>TearsOfSteel.mp4</name>
                  <pathurl>file:///data/input/TearsOfSteel.mp4</pathurl>
                  <rate>
                    <timebase>24</timebase>
                    <ntsc>FALSE</ntsc>
                  </rate>
                  <duration>3265</duration>
                  <media>
                    <video>
                      <samplecharacteristics>
                        <rate>
                          <timebase>24</timebase>
                        </rate>
                        <width>3840</width>
                        <height>2160</height>
                      </samplecharacteristics>
                    </video>
                  </media>
                </file>
                <labels>
                  <label2>medium</label2>
                </labels>
                <comments>
                  <mastercomment1>0.09002578662327416</mastercomment1>
                  <mastercomment2>medium</mastercomment2>
                </comments>
              </clipitem>
              <clipitem id="clipitem-8">
                <name>Sintel.mp4</name>
                <duration>87</duration>
                <rate>
                  <timebase>24</timebase>
                  <ntsc>FALSE</ntsc>
                </rate>
                <start>592</start>
                <end>679</end>
                <in>6221</in>
                <out>6308</out>
                <file id="file-8">
                  <name>Sintel.mp4</name>
                  <pathurl>file:///data/input/Sintel.mp4</pathurl>
                  <rate>
                    <timebase>24</timebase>
                    <ntsc>FALSE</ntsc>
                  </rate>
                  <duration>6548</duration>
                  <media>
                    <video>
                      <samplecharacteristics>
                        <rate>
                          <timebase>24</timebase>
                        </rate>
                        <width>3840</width>
                        <height>2160</height>
                      </samplecharacteristics>
                    </video>
                  </media>
                </file>
                <labels>
                  <label2>medium</label2>
                </labels>
                <comments>
                  <mastercomment1>0.34524581613170674</mastercomment1>
                  <mastercomment2>medium</mastercomment2>
                </comments>
              </clipitem>
              <clipitem id="clipitem-9">
                <name>TearsOfSteel.mp4</name>
                <duration>43</duration>
                <rate>
                  <timebase>24</timebase>
                  <ntsc>FALSE</ntsc>
                </rate>
                <start>679</start>
                <end>722</end>
                <in>14114</in>
                <out>14157</out>
                <file id="file-9">
                  <name>TearsOfSteel.mp4</name>
                  <pathurl>file:///data/input/TearsOfSteel.mp4</pathurl>
                  <rate>
                    <timebase>24</timebase>
                    <ntsc>FALSE</ntsc>
                  </rate>
                  <duration>14397</duration>
                  <media>
                    <video>
                      <samplecharacteristics>
                        <rate>
                          <timebase>24</timebase>
                        </rate>
                        <width>3840</width>
                        <height>2160</height>
                      </samplecharacteristics>
                    </video>
                  </media>
                </file>
                <labels>
                  <label2>medium</label2>
                </labels>
                <comments>
                  <mastercomment1>0.6830674278622905</mastercomment1>
                  <mastercomment2>medium</mastercomment2>
                </comments>
              </clipitem>
            </track>
          </video>
          <audio>
            <track>
              <clipitem id="clipitem-audio-1">
                <name>CinematicTrack.mp3</name>
                <duration>722</duration>
                <rate>
                  <timebase>24</timebase>
                  <ntsc>FALSE</ntsc>
                </rate>
                <start>0</start>
                <end>722</end>
                <in>0</in>
                <out>722</out>
                <file id="file-audio-1">
                  <name>CinematicTrack.mp3</name>
                  <pathurl>file:///data/music/CinematicTrack.mp3</pathurl>
                  <rate>
                    <timebase>24</timebase>
                    <ntsc>FALSE</ntsc>
                  </rate>
                  <duration>722</duration>
                </file>
              </clipitem>
            </track>
          </audio>
        </media>
      </sequence>
    </children>
  </project>
</xmeml>
